<?xml version="1.0" encoding="utf-8"?>
<!-- Generator: Adobe Illustrator 24.1.2, SVG Export Plug-In . SVG Version: 6.00 Build 0)  -->
<svg version="1.1" xmlns="http://www.w3.org/2000/svg" xmlns:xlink="http://www.w3.org/1999/xlink" x="0px" y="0px"
	 viewBox="0 0 612 792" style="enable-background:new 0 0 612 792;" xml:space="preserve">
<style type="text/css">
	.st0{display:none;}
	.st1{display:inline;fill:#FFFFFF;stroke:#000000;stroke-miterlimit:10;}
	.st2{display:inline;fill:none;}
	.st3{display:inline;}
	.st4{font-family:'Rockwell-ExtraBold';}
	.st5{font-size:37px;}
	.st6{fill:none;}
</style>
<g id="Layer_1_copy" class="st0">
	<path class="st1" d="M108,179c-72,21.5-72,199,0,217.9c108,26,396-55,396-109S216,153,108,179z"/>
	<rect x="157.5" y="27" class="st2" width="468" height="175.5"/>
	<text transform="matrix(1 0 0 1 157.5 52.1226)" class="st3 st4 st5">Sunny Side Seeds</text>
</g>
<g id="Layer_1">
	<g class="st0">
		<g class="st3">
			<path d="M152.4,547.6c-4.7-0.6-6.9-0.9-11.2-1.7c-25.9-8.1-37.8-33.3-46.2-56.8c5.4,0,8.2-0.1,14-0.2c4.6,10.6,11.6,29.5,22.7,31
				c2.9,0.4,2.5-4.4-1.7-14.7c-2.1-5.4-4.3-10.2-6.7-14c-2.6-4.2-7.5-10.2-13-18c-5.8-8.3-11.4-17.4-15.1-27.1
				c-3.5-9.2-4.7-19.3-5.3-28.9c-0.8-12.5,1-26.2,5.3-38c6.3-17.4,16.4-34.3,32.7-43.5c8.2-4.6,16.6-8.6,25.9-10.3
				c4.6-0.9,4.1,0.2,0.6,7.2c3.7-3.6,5.6-5.1,9.7-7.6c5.3-0.5,8.1-0.7,13.8-0.9c-17.8,13-25.6,34.1-32.1,54.2c-6.6,0-9.8,0-16.1,0.1
				c1.4-7.1,6-25.2,1.5-26.9c-1.8-0.7-7.4,4.2-11.5,13.8c-2,4.7-2.7,8.4-2.7,10.9c0.1,2.6,1,8.4,4.2,18c3.3,10,7.2,19.7,10.7,29.6
				c1.1,3.1,2.3,7.5,3.7,13.1c1.4,5.6,2.8,11.5,4.3,17.5c3.4,13.9,6.8,27.9,10.9,41.4c4.6,15,9.9,30.1,16.8,44.3
				c4.2,8.8,5.1,10.2,0,9.7c-9.7-1-18-4.7-27.2-8.8C145,544.3,147.3,545.7,152.4,547.6z"/>
			<path d="M258.7,542.6c-21.9,3.1-43.8,5.4-65.9,6.4c-14.4-10.6-21.7-25.8-28.4-41.8c2.3-0.1,3.5-0.2,5.8-0.4
				c-15-45.9-16.1-93.1-2.5-139.5c-2.4,0-3.6-0.1-6-0.1c6.1-15.8,13.1-32.7,26.9-43.5c22.9-0.1,45.6,1.3,68.4,3.5
				c-11.7,19.1-17.3,40.7-21.9,62.4c-9.1-0.4-13.7-0.6-22.6-0.9c1.5-8.1,2.5-12,4.6-19.4c-7.6-0.4-11.4-0.6-18.8-0.9
				c-3.8,12.7-6.4,25.8-7.8,38.9c6.6,0.1,9.9,0.1,16.7,0.2c-1.4,18.4-1.1,36.1,0.7,54.4c-6.7,0.4-10.1,0.5-16.7,0.9
				c2.1,14.2,4.7,28,9.1,41.7c7.3-0.7,11-1,18.5-1.8c-2.2-7.4-3.2-11.3-4.9-19.4c8.9-0.7,13.4-1.1,22.4-1.9
				C241.1,502.2,246.2,524.8,258.7,542.6z"/>
			<path d="M341.9,525.6c-23.9,5.9-47.8,11-72.1,15.2c-7.7-13.2-12-27.5-16.2-42.1c2.7-0.3,4-0.5,6.6-0.8
				c-9.7-42.7-10.9-83.1-1.2-125.8c-2.8-0.2-4.1-0.3-6.9-0.5c4.3-14.9,8.8-29.4,16.2-43.1c25.1,3.2,50,7.4,74.9,12.4
				c-1.7,18.4-6.6,36.5-9.8,54.7c-9.4-0.7-14.1-1.1-23.5-1.7c1.1-6.9,1.8-10.3,3.2-16.7c-8-0.8-12.1-1.2-20.1-2
				c-2.4,11.4-4.2,22.5-5.7,34.1c7.1,0.2,10.7,0.3,17.9,0.6c-1,15.5-0.7,30.5,0.5,46c-7.1,0.5-10.7,0.7-17.8,1.2
				c1.3,12.3,3.3,24.5,5.8,36.6c7.9-1.1,11.9-1.7,19.8-2.8c-1.2-6.5-1.8-9.8-2.8-16.8c9.3-1,14-1.6,23.3-2.7
				C336.7,489.4,340.2,507.4,341.9,525.6z"/>
			<path d="M388.3,512.6c-11.4,3.5-22.9,6.8-34.4,9.9c0-12.6-2-25-3.7-37.4c2.7-0.4,4.1-0.7,6.7-1.1c-4.5-34.9-5.7-67,0.2-101.7
				c-2.7-0.3-4.1-0.5-6.8-0.8c2.3-12.5,5.2-25,5.4-37.8c12.2,2.7,24.4,5.7,36.6,8.8c8.2,2.2,14.9,4.8,20.5,7.7
				c5.6,3,11.6,7.6,16.9,14c5.3,6.4,9.1,14.8,10.8,25.1c0.9,4.9,1.2,10.2,1.4,15.7c0.2,5.5,0.5,11.3,0.6,17.3
				c0.3,11.2,0.3,22.9-2.9,34c-3,10.3-7.8,18.4-13.2,24.4c-5.3,5.9-10.8,10.2-16,13.1C405.4,506.6,398.1,509.6,388.3,512.6z
				 M390.3,386.7c-4.6,31.3-3.4,60.1-0.6,91.5c1.2-0.2,1.8-0.3,3.1-0.6c7.6-1.4,12.3-6.2,13.9-14.4c2-10,1.6-20.5,1.3-30.6
				c-0.2-7.2-0.4-14.4-0.7-21.5c-0.2-7.1-1.2-12.7-3.2-16.8c-2-4.1-6.1-6.6-12.6-7.5C391.1,386.8,390.8,386.7,390.3,386.7z"/>
			<path d="M458.5,487.4c-6.4,2.7-8.5,3.5-14.3,5.8c8.9-10.8,11.2-25,10.6-38.6c6.9-1.1,10-1.4,17.6-2.6c2,9.9,4.3,13.5,10,11.8
				c4.1-1.2,7.1-3.9,7.9-8.3c0.4-2.3-0.1-4-1.4-5.3c-1.5-1.4-4.7-3.1-10.1-5.8c-6.8-3.3-12-7.1-15.3-10.3c-3-3-5.8-7.2-7.4-12.8
				c-1.7-5.6-1.8-11.9-1.2-18.6c1.1-11.9,1.8-20.3,3.8-24.4c2-4.1,4.2-4.4,10.4-1.8s14.4,7,22.4,13.1c-1.9-2.2-3-3.3-5.9-5.5
				c5.8,2.6,8.6,3.9,13.8,6.6c7.4,6.1,15.6,11.9,14.6,22.8c-6.1-1.3-9.4-1.9-16.1-3.2c-1.7-7.8-6.5-12.7-11.8-14.2
				c-3.7-1-5.1,0.6-5.1,5.1c0,2.2,0.5,3.9,1.5,5.2c1,1.3,4.4,4.5,9.7,8.9c7.2,5.8,11.7,9.2,14.1,11.1c1.2,1,2.5,2.2,3.8,3.8
				c1.3,1.6,2.5,3.1,3.3,4.7c2,3.6,3,7.3,2,11.7c-1.6,6.7-7.9,13.5-17.3,20c-7.8,5.4-16.1,10.7-24.8,14.9c-5.6,2.7-7.4,2.8-8.9-0.7
				C462.3,483.5,461.2,484.8,458.5,487.4z"/>
		</g>
	</g>
	<g id="Logo_3">
		<g>
			<path d="M132.5,618.7c-2.6,0.5-3.9,0.7-6.4,1.2c0.9-9.4,1.8-14,4.5-22.3c2.4-0.6,3.6-0.8,6.2-1.3c-1,5.5-0.1,8.4,2.1,8
				c1.6-0.3,2.7-1.9,3.4-4.9c0.4-1.5,0.4-2.7,0.2-3.6c-0.3-1-1.1-2.2-2.3-3.6c-1.5-1.8-2.3-3.4-2.6-4.7c-0.3-1.2-0.1-2.9,0.6-5.1
				c0.7-2.1,2.1-4.4,4.1-6.8c3.6-4.2,7.8-7.1,11.7-9.2c3.9-2.2,7-3.5,9.1-4.2c2.1-0.7,2.6-0.7,2,0.6c1.1-0.9,1.7-1.3,2.8-2
				c2.3-0.7,3.5-1,5.9-1.7c-5.1,3.6-7.3,5.9-11.1,11.5c-2.6,0.5-3.9,0.8-6.4,1.4c2-3.6,2.4-4.7,0.6-4.2c-1.3,0.4-2.8,1.3-4.4,3.2
				c-0.8,0.9-1.2,1.5-1.2,1.9c0,0.4,0.3,1.2,1.1,2.5c1.1,1.8,2.1,3.5,2.5,4.6c0.2,0.5,0.3,1.3,0.3,2.4c0,1.1,0,2.2-0.1,3.5
				c-0.3,2.8-0.9,6-1.8,9.6c-1.4,5.6-3.3,10.8-5.7,15.3c-2.5,4.6-5.1,7.2-8,7.7c-2.7,0.5-4.9-1.1-6.5-4.5
				C132.8,615.8,132.7,616.7,132.5,618.7z"/>
			<path d="M170.6,567.1c-0.9,0.2-1.4,0.3-2.3,0.4c3.3-4.5,5.1-6.4,9.3-9.5c5.6-1.4,8.6-2,14.8-3.1c-3.7,3.3-5.3,5.3-8.2,9.9
				c-0.6,0.1-0.9,0.1-1.5,0.2c-4.1,6.5-5.8,10.3-8.4,18.8c-1.6,5.1-2.1,8.8-2,10.7c0.1,1.9,0.9,2.8,2.3,2.6c1.2-0.1,2.1-1.1,3-2.8
				c0.9-1.7,1.8-5.1,3.1-9.9c2.6-9.2,4.3-13.5,8.5-20.4c-0.7,0.1-1,0.1-1.7,0.2c2.8-4.6,4.4-6.6,8-10c4.6-0.8,7-1.1,11.9-1.7
				c-3.3,3.4-4.7,5.5-7.3,10.2c-1.1,0.1-1.6,0.2-2.7,0.3c-4,7.1-5.6,11.3-8.1,20.6c-1.6,5.9-3.1,11.2-4.7,15.4
				c-1.6,4.2-3.6,7.6-6.1,10.3c-2.5,2.7-5.3,4.2-8.4,4.6c-2.6,0.3-4.7-0.1-6.5-1.1c-1.8-1-3.2-2.7-4-5.1c-0.8-2.4-1.1-5.3-1-8.6
				c0.2-3.2,1-8.3,3.2-14.5C164.6,576.7,166.3,573.1,170.6,567.1z"/>
			<path d="M206.2,609c-6.3,0.6-9.4,0.9-15.5,1.5c0.6-7,1.1-10.4,2.3-16.8c1.3-0.1,1.9-0.2,3.2-0.3c2.4-10.7,4.8-21.3,9.9-31.1
				c-1.2,0.1-1.8,0.2-3.1,0.3c2.5-4.7,4-6.8,7.2-10.2c6.2-0.7,9.4-1.1,16-1.6c-1.1,7.4-0.4,12.9,2,25.3c1.8-6.9,2.8-10,5.2-15.7
				c-1.2,0.1-1.8,0.1-3,0.2c2.1-4.7,3.2-6.9,5.8-10.5c5.7-0.4,8.6-0.5,14.5-0.7c-2.3,3.7-3.3,5.8-5.1,10.5c-1.3,0-2,0.1-3.3,0.1
				c-6,15.1-8.3,31.6-10.3,47.7c-5.3,0.4-7.9,0.6-13.1,1.1c-3.6-12.6-6.8-25.1-8.2-38.2c-2.8,8-3.9,12.7-5.7,22.1
				c1.3-0.1,2-0.2,3.4-0.3C207.3,598.8,206.8,602.1,206.2,609z"/>
			<path d="M256.3,605.1c-6.7,0.4-10.1,0.6-16.7,1.1c0.7-6.6,1.1-9.8,2.2-15.9c1.4-0.1,2.1-0.1,3.5-0.2c2-10.3,3.9-20.6,7.5-30.4
				c-1.4,0-2,0-3.4,0.1c1.8-4.7,2.7-6.9,4.9-10.5c7-0.2,10.5-0.2,17.6-0.3c1.6,8.1,3.2,13.6,6.8,25.7c1.3-6.5,2-9.6,3.5-15.1
				c-1.3,0-1.9,0-3.2,0c1.3-4.7,2-6.8,3.6-10.5c6.1,0.1,9.2,0.2,15.4,0.4c-1.2,3.7-1.8,5.8-2.9,10.4c-1.4,0-2.1-0.1-3.5-0.1
				c-3.5,14.7-5.9,29.7-8,44.7c-5.5,0.3-8.2,0.4-13.7,0.7c-4.1-12.1-7.5-24.4-10.6-36.7c-2,7.8-2.9,12.5-4.5,21.3
				c1.4-0.1,2.2-0.1,3.6-0.1C257.5,595.6,257,598.7,256.3,605.1z"/>
			<path d="M323.5,602c-9.1,0.3-13.7,0.4-22.9,0.8c0.8-5.9,1.2-8.7,2.2-14.2c1.3,0,2,0,3.4,0c0.7-3.6,1-5.6,1.5-9.2
				c-2.8-8.3-4.3-12.3-6.8-19.3c-1.1,0-1.6-0.1-2.7-0.1c1-4.6,1.6-6.7,2.8-10.3c8,0.3,12,0.5,20,1.1c-0.8,3.6-1.1,5.7-1.9,10.1
				c-1,0-1.4-0.1-2.4-0.1c1,3.9,1.6,6,2.7,10.3c2.8-4.2,4.1-6.2,6.7-9.8c-1-0.1-1.5-0.1-2.4-0.1c0.7-4.4,1-6.4,1.7-10.1
				c5.9,0.4,8.8,0.7,14.6,1.2c-0.4,3.6-0.5,5.6-1,9.9c-1-0.1-1.5-0.1-2.5-0.2c-4.7,6.3-7.3,9.9-12.6,17.8c-0.5,3.5-0.8,5.5-1.4,8.9
				c1.3,0,2,0,3.3,0C324.7,593.8,324.3,596.5,323.5,602z"/>
			<path d="M361.5,601.2c-3.7,0-5.5,0.1-9.2,0.1c1.1-6.8,1.9-9.7,2.8-16.5c3.7,0.1,5.5,0.2,9.1,0.4c0.5,4.5,2.1,6.6,5.1,6.6
				c2.2,0.1,3.4-0.9,3.8-2.9c0.2-1-0.1-2-0.7-2.8c-0.7-0.9-2.3-2.1-4.7-3.7c-3-2-5.3-3.8-6.7-5.2c-1.3-1.3-2.4-3-3.3-5.2
				c-0.9-2.1-1.2-4.3-1.1-6.6c0.2-4.1,1.4-6.9,3.6-8.7c2.2-1.7,4.8-2.3,8-1.9c3.2,0.4,5.9,1.7,8.3,3.8c-0.1-0.9-0.2-1.4-0.3-2.2
				c3.2,0.5,4.8,0.7,8,1.2c0.8,3.9,1.1,6.1,1.4,10.8c-3.3-0.4-5-0.6-8.4-1c-1.1-3.4-3.1-5.2-5.7-5.5c-1.8-0.2-2.7,0.5-2.7,2.2
				c0,0.8,0.3,1.5,0.8,2c0.5,0.5,2.2,1.7,5,3.5c3.8,2.5,6.3,4.4,7.5,5.5c0.6,0.6,1.3,1.3,1.9,2.3c0.6,1,1.2,2,1.5,3
				c0.9,2.3,1.2,4.7,0.8,7.3c-0.5,4.1-2.4,6.9-5.4,9.6c-3,2.7-6.4,4.2-10.2,4.3c-3.5,0-6.5-1.2-9-3.9
				C361.8,599.2,361.7,599.9,361.5,601.2z"/>
			<path d="M410.4,601.1c-8.5-0.1-12.9-0.1-21.8-0.1c0.9-4.4,1.3-6.6,2-10.7c1.4,0.1,2.1,0.1,3.6,0.2c1.6-8.8,1.4-14.5,0.4-22.7
				c-1.3-0.2-2-0.3-3.3-0.5c-0.4-3.8-0.8-5.6-1.6-8.8c7.9,1.3,11.7,2,19.1,3.5c1.3,3.1,1.9,4.7,2.7,8.3c-1.3-0.2-1.9-0.3-3.2-0.5
				c1.7,7.8,2,13.3,0.6,21.5c1.4,0.1,2,0.1,3.4,0.2C411.6,595.2,411.2,597.2,410.4,601.1z"/>
			<path d="M431.9,601.5c-6.5-0.2-9.9-0.2-16.8-0.3c0.8-3.9,1.2-5.7,1.8-9.4c1.1,0.1,1.7,0.1,2.9,0.2c1.2-7.7,0.7-13.1-1.4-20.5
				c-1.1-0.2-1.6-0.3-2.6-0.5c-0.9-3.5-1.5-5.1-3-8.1c6.1,1.3,9,2,14.7,3.4c3.2,0.8,5.9,1.7,8.1,2.6c2.3,0.9,4.7,2.2,7.3,3.9
				c2.6,1.7,5.2,3.8,7.4,6.2c1.1,1.2,2.1,2.4,2.9,3.7c0.8,1.3,1.4,2.7,1.8,4.1c0.8,2.8,0.5,5.8-0.9,7.7c-1.3,1.9-3.1,3.4-5.2,4.5
				c-2,1.1-4.2,1.8-6.5,2.1C440.2,601.5,436.7,601.6,431.9,601.5z M431,573.9c2.8,7,3.5,12.2,2.5,19.2c0.5,0,0.8,0.1,1.3,0.1
				c3.1,0.3,5.3-0.3,6.2-2c0.9-1.7,1.3-3.9,0.8-6.5c-0.3-1.6-0.8-3.1-1.7-4.7c-0.8-1.5-1.9-2.8-3.2-3.8c-1.2-1-3.1-1.7-5.5-2.2
				C431.3,573.9,431.2,573.9,431,573.9z"/>
			<path d="M486.5,604.3c-9.9-0.9-15.4-1.2-27.4-1.8c0.6-2.8,0.9-4.1,1.1-6.7c1,0.1,1.4,0.2,2.4,0.3c0.4-5.5-0.9-10-5.3-16
				c-0.8-0.2-1.3-0.4-2.1-0.6c-1.9-2.8-3.1-4.2-5.9-6.7c9.5,3.3,13.7,5,20.5,8.7c5.2,2.9,7.3,4.3,10.6,7.4c-2.3-0.8-3.4-1.2-5.9-2
				c-0.8-0.8-1.2-1.2-2-2.1c-2.1-0.7-3.1-1.1-5.3-1.8c1.5,1.6,2.2,2.5,3.3,4.2c2,0.5,3,0.8,4.9,1.4c1.6,2.1,2.2,3.2,3,5.5
				c-2-0.4-3.1-0.7-5.2-1.1c0.6,1.9,0.7,3.1,0.7,4.6c2.5,0.4,3.8,0.6,6.2,0.9c0-0.7-0.1-1.1-0.3-2c2.7,0.5,4.1,0.8,6.6,1.3
				C487.2,601.1,487,601.7,486.5,604.3z"/>
			<path d="M193,738.9c-3.4,0.1-5.1,0-8.3-0.1c-12-1.8-22.3-9-30-18.2c4-0.5,6.1-0.8,10.4-1.4c7.7,8.2,13.8,10.5,17.2,10
				c2.5-0.3,2-2-1.1-5.7c-1.6-1.9-3.4-3.6-5.4-4.9c-2.1-1.4-5.8-3.3-10.9-5.8c-6.5-3.2-11.5-6.5-15-9.4c-3.2-2.6-6.8-6.5-10.2-11.9
				c-3.4-5.3-6.2-11.6-8.1-18.9c-2.7-10.4-3.4-21.9,0.1-32.2c2.8-8.1,7.1-12.6,12.2-13.4c5.1-0.8,9.4,2,13.5,8.7
				c-0.1-3.6-0.2-5.4-0.1-8.9c5.6-0.8,8.5-1.2,14.4-2c-0.2,13.7,1,27.3,3.4,40.8c-5.6,0.9-8.3,1.3-13.7,2.2
				c-3.9-10.8-7.3-16.2-11.4-15.5c-2.9,0.5-3.9,3.7-2.9,9.7c0.5,2.9,1.4,5,2.5,6.3c1.1,1.3,4.3,4.3,9.8,8.5
				c7.4,5.8,12.8,9.8,15.7,12.4c1.5,1.3,3.1,3.1,5,5.4c1.9,2.3,3.7,4.6,5.4,7c3.8,5.2,7.3,10.7,10.6,15.9c5.1,8,8.4,13.3,10.1,16.7
				c1.7,3.5,1.2,4.3-2.6,4.5c-3.6,0.2-9.2,0-17-1.9C189.1,737.9,190.4,738.3,193,738.9z"/>
			<path d="M268.5,725.7c-15.2,4.3-30.7,7.9-46.4,10.4c-7.2-3.6-10.5-6.9-16.2-15.4c1.7-0.3,2.5-0.5,4.2-0.8
				c-12.3-18.7-16.8-41.4-20.2-63c-2.1,0.3-3.1,0.5-5.2,0.8c-1.3-11.5-1.9-22.5-2-34.1c23-2.7,46-5,69.1-7
				c-0.6,14-0.8,27.9,0.2,41.9c-7.5,1.2-11.3,1.8-18.7,3c-0.5-4.3-0.6-6.4-0.9-10.8c-6.5,0.9-9.7,1.4-16.1,2.3
				c0.8,8.5,1.3,12.7,2.8,20.7c5.3-0.9,8-1.4,13.4-2.3c1.5,10.5,2.6,15.5,5,24.6c-5,1.1-7.5,1.6-12.4,2.6c2.4,7.4,3.7,10.8,6.7,16.7
				c5.2-1.2,7.8-1.8,13.2-3.1c-1.2-2.9-1.8-4.5-2.9-7.8c6.4-1.5,9.7-2.2,16.3-3.8C261.5,713.6,263.6,719.1,268.5,725.7z"/>
			<path d="M326.7,706.2c-16.7,6.2-33.4,12-50.4,17.2c-3.1-5.1-4.4-8.8-6.7-17.4c1.9-0.5,2.8-0.7,4.7-1.3
				c-4.6-19.3-5.6-39.3-6.1-59.1c-2.3,0.3-3.5,0.5-5.9,0.8c-0.2-10.2,0-20.6,0.8-30.8c24.6-1.9,49.3-3.5,73.9-4.8
				c-1.6,11.6-3.1,23.1-4.4,34.7c-7.7,1.2-11.5,1.8-19.2,3.1c0.2-3.7,0.4-5.5,0.6-9.2c-6.8,0.9-10.2,1.4-17,2.3
				c-0.3,7.4-0.4,11.1-0.5,18.2c5.7-1,8.5-1.6,14.2-2.6c-0.4,9.1-0.5,13.6-0.6,21.8c-5.3,1.3-7.9,2-13.2,3.3
				c0.3,6.8,0.5,10,1.1,15.8c5.6-1.6,8.4-2.5,14.1-4.1c0-2.8,0-4.2,0-7.3c6.8-1.9,10.2-2.8,16.9-4.8
				C327.8,693.6,327.4,698.8,326.7,706.2z"/>
			<path d="M359.5,692.7c-9.6,4.2-14.5,6.3-24.4,10.2c1.1-5.6,1.7-9.1,3-17c1.9-0.6,2.9-0.9,4.8-1.6c3.1-16.5,5.7-33.2,8.3-49.8
				c-2.3,0.3-3.5,0.5-5.8,0.8c1.5-10.1,2.2-15.2,3.7-25c11.9-0.6,23.9-1.1,35.8-1.5c8-0.3,14.2,0.1,18.8,1c4.6,0.9,8.7,3,11.8,5.9
				c3.2,3,5,7,5.1,12.1c0.1,2.4-0.2,5-1,7.8c-0.8,2.8-2,5.7-3.7,8.9c-3.4,6.3-7.9,12.1-13.2,17.8c-5.2,5.6-10.2,10.1-14.9,13.8
				c-4.6,3.6-8.7,6.5-12.4,8.7C371.7,687,366.5,689.7,359.5,692.7z M379.2,630.9c-3.5,15.4-7.7,30.7-12.9,45.6
				c0.9-0.3,1.3-0.5,2.2-0.8c5.4-1.9,9.7-4.9,12.9-9.2c3.2-4.3,6.1-9.3,8.3-15.4c1.3-3.6,2.3-7.3,2.7-10.8c0.4-3.5-0.2-6.2-1.7-8
				c-1.5-1.7-4.9-2.3-10.4-1.6C379.8,630.8,379.6,630.8,379.2,630.9z"/>
			<path d="M410.4,668c-4.1,2.2-6.2,3.3-10.4,5.5c7.3-7.1,10.8-11.2,16.9-19.7c5-1.8,7.5-2.7,12.3-4.5c-3.1,4.8-3.3,6.1,0.3,4.5
				c2.6-1.2,5.3-3,7.9-5.4c1.4-1.3,2-2.1,1.9-2.6c-0.1-0.5-1-0.9-3-1.5c-2.5-0.7-4.4-1.8-5.5-2.8c-1-1-1.4-2.8-1.2-5.4
				c0.1-2.6,1-5.7,2.7-9.4c3-6.5,6.7-11.7,11.6-15.2c4.9-3.5,9.8-5,15-4.9c5.1,0,9,1.4,11.2,3.8c0.5-1.2,0.8-1.8,1.2-3
				c5,0,7.3,0.1,11.9,0.2c-1.7,4.6-3.3,7.1-7.5,12.3c-4.6,0.8-6.9,1.2-11.8,1.9c1.4-3.9-0.4-5.8-4.4-5.4c-2.8,0.3-4.8,1.6-6.1,4.1
				c-0.6,1.2-0.7,2-0.3,2.5c0.4,0.5,2.2,1.5,4.8,2.7c3.5,1.6,5.2,2.6,5.9,3.2c0.3,0.3,0.5,0.9,0.3,1.6c-0.1,0.7-0.5,1.5-1.1,2.3
				c-1.3,1.9-3.8,4-7.3,6.7c-5.4,4.1-12,8.3-19,12.8c-7,4.5-12.5,8-16.6,10.4c-3.8,2.2-5.4,2.8-5.6,1.6
				C412.9,665.9,412,666.6,410.4,668z"/>
		</g>
	</g>
	<g id="Logo_2">
		<g>
			<g>
				<path d="M177.2,512.7c-4.5,0.4-6.7,0.5-10.9,0.6c-25.2-2.1-41.1-21.4-53.6-41.2c5.1-1,7.7-1.6,13.2-2.8
					c6.4,8.7,16.4,23.8,26.8,23c2.9-0.2,1.6-4.3-4.1-12.6c-3-4.4-5.9-8.1-8.8-11.1c-3.2-3.2-8.5-7.6-15.4-13.4
					c-6.9-5.8-14-13.3-19-20.9c-3.7-5.7-7.4-14-10.1-24.4c-2.9-11.4-2.7-23-1.5-34.4c1.7-16.6,10.6-33.3,23.5-44.4
					c10.1-8.8,18.4-12.4,22.8-13.9c4.3-1.5,3.9-0.5,1.8,6.3c2.8-3.8,4.4-5.5,7.9-8.5c5-1.4,7.6-2.1,12.9-3.4
					c-14.3,14.4-18.4,34.4-21,53.7c-6.3,1.2-9.3,1.8-15.2,3.1c0.2-18.2,1-25-3.2-24c-3,0.7-6.3,5.1-8.5,14.3
					c-1.1,4.5-1.1,7.9-0.7,10.1c0.5,2.2,2.4,7.2,7.1,15c4.9,8.1,10.2,16.1,15.3,24.1c1.6,2.5,3.4,6.2,5.8,10.9
					c2.3,4.7,4.7,9.6,7.1,14.6c5.6,11.6,11.2,23.2,17.5,34.3c7,12.3,14.6,24.6,23.5,35.7c5.5,6.9,6.7,7.8,1.7,8.5
					c-4.7,0.6-13.9,1-27.3-2.6C169.6,511.2,172.1,512,177.2,512.7z"/>
				<path d="M277.1,488.6c-20.2,6.8-40.5,13.3-61.3,17.9c-15.1-6.5-24.8-18.4-34.2-31.4c2.2-0.6,3.3-0.8,5.5-1.4
					c-22-37.9-31.2-78.5-26.5-122.1c-2.3,0.4-3.4,0.6-5.7,1c3.1-15.3,7-31.5,18-43.3c21.7-4.3,43.4-7.4,65.4-9.7
					c-7.7,18.7-9.3,38.9-10,58.9c-8.7,1.3-13.1,2-21.6,3.4c0.1-7.4,0.3-11,1-17.9c-7.3,1-10.9,1.6-18,2.7
					c-1.4,11.8-1.6,23.8-0.6,35.7c6.3-1.2,9.4-1.8,15.8-3c1.2,16.2,5,32.3,10.1,47.7c-6.3,1.6-9.5,2.4-15.6,3.9
					c4.2,12.1,9.4,23.8,15.8,34.9c6.8-1.9,10.3-2.9,17.2-5c-3.4-6.1-5-9.3-8-16.1c8.3-2.3,12.5-3.4,20.9-5.8
					C253.5,456.5,262.4,475.4,277.1,488.6z"/>
				<path d="M352.9,458.1c-21.6,9.6-43.4,18.7-65.6,26.8c-9.5-10-16-21.9-22.6-33.9c2.5-0.8,3.7-1.2,6.2-2
					c-16.6-35.8-24.7-70.8-22.9-110.4c-2.6,0.3-4,0.5-6.6,0.8c1.5-13.9,3.3-27.6,7.9-40.9c24.3-1.8,48.6-2.8,73-3.1
					c1.6,16.5,0,33.4,0.2,49.9c-9,1.1-13.5,1.7-22.6,2.9c-0.1-6.3-0.1-9.4,0.1-15.3c-7.8,0.8-11.6,1.2-19.4,2
					c-0.6,10.2-0.5,20.9,0.5,31.1c6.8-1.1,10.2-1.7,17-2.8c1.2,13.7,4.3,27.2,8.5,40.4c-6.7,1.8-10,2.6-16.7,4.4
					c3.6,10.5,7.3,20.9,11.9,31c7.3-2.4,11-3.7,18.3-6.2c-2.3-5.4-3.4-8.3-5.6-14.2c8.7-2.7,13-4,21.6-6.7
					C341.7,427.3,348.2,442.5,352.9,458.1z"/>
				<path d="M394.6,438.1c-10.3,5.2-20.5,10.2-30.9,15.1c-2.1-11-6.3-21.7-10-32.2c2.5-0.9,3.7-1.3,6.2-2.2
					c-10.3-30-17-57.6-17.4-89.5c-2.6,0.2-4,0.3-6.6,0.5c0-11.3,0.6-23-1.4-34.2c12.1,0.1,24.1,0.4,36.2,1c8.1,0.4,15,1.4,20.8,3
					c5.8,1.6,12.3,4.5,18.5,9.2c6.2,4.7,11.2,11.3,14.6,20c1.7,4.2,2.9,8.7,4.1,13.6c1.2,4.8,2.3,9.9,3.6,15.1
					c2.4,9.2,4.2,20.7,3.2,30.4c-1.1,9.6-4.2,17.7-8.2,23.9c-4,6.2-8.5,11-12.9,14.5C409.8,429.6,403.4,433.6,394.6,438.1z
					 M374.7,326.9c1,28.5,7.2,53.4,15.3,80.6c1.1-0.4,1.7-0.6,2.8-1.1c6.9-2.6,10.6-7.7,10.7-15.2c0.1-7.5-1.6-16.6-4-27.1
					c-1.5-6.3-2.9-12.6-4.3-18.8c-1.5-6.2-3.4-10.9-6-14.1c-2.6-3.2-7-4.7-13.3-4.3C375.5,326.9,375.2,326.9,374.7,326.9z"/>
				<path d="M456.8,402.9c-5.6,3.6-7.4,4.7-12.5,7.7c6.5-11,6.3-24,3.3-36c6.3-2.3,9.2-3.1,16.2-5.6c3.7,8.3,6.5,11,11.6,8.5
					c3.7-1.8,6.1-4.8,6.1-8.8c0-2.1-0.8-3.5-2.3-4.4c-1.6-0.9-5.1-1.9-10.7-3.2c-7.1-1.6-12.7-4-16.4-6.2c-3.4-2.1-6.7-5.3-9.3-9.9
					c-2.5-4.6-3.8-10.2-4.4-16.1c-1-10.7-1.9-18.2-0.7-22.2c1.2-4,3.3-4.6,9.6-3.5c6.3,1.1,14.9,3.5,23.5,7.3
					c-2.2-1.6-3.4-2.3-6.5-3.7c6,1.2,8.9,1.9,14.3,3.3c15.7,5.2,16.3,9.3,17.8,17.3c-6.1,0-9.3,0-15.9,0.2c-3-6.6-8.4-10-13.7-10.3
					c-3.8-0.2-4.8,1.5-4,5.4c0.4,1.9,1.2,3.4,2.4,4.3c1.2,0.9,5,3.2,10.8,6c7.8,3.8,12.8,5.9,15.4,7.1c1.3,0.6,2.8,1.5,4.3,2.6
					c1.5,1.1,2.9,2.3,4,3.5c2.5,2.7,4.1,5.9,3.9,9.9c-0.3,6.2-5.2,13.1-12.9,20.8c-7.8,7.8-15.8,14-21.1,17.8
					c-4.9,3.5-6.6,3.9-8.7,1.1C459.8,398.7,458.9,400.1,456.8,402.9z"/>
			</g>
		</g>
		<path id="SVGID_x5F_1_x5F_" class="st6" d="M433.8,293.6c52,8.4,89.8,22.2,93.9,40.3c4,18.1-24.4,46.6-67.9,76.3
			c-83.3,56.7-222,117.4-295,116.1c-36.4-1.4-64.2-43.6-75.5-90.6c-11.7-49.1-5.4-103.4,28.1-122.2
			C183,281.4,334.3,277.5,433.8,293.6z"/>
		<text class="st0">		<textPath  xlink:href="#SVGID_x5F_1_x5F_" startOffset="18213.7969%"  class="st3">
<tspan  class="st4" style="font-size:32px;">Sunny Side Sunflower</tspan>		</textPath>
</text>
		<g>
			<path d="M96.4,334.9l-2.6,4.1l-5.9-3.8l2.7-4.1c1.9,0.5,3.3,0.1,4.2-1.2c0.6-1,0.6-1.7-0.2-2.2c-0.4-0.3-0.9-0.3-1.4-0.1
				c-0.5,0.2-1.4,0.7-2.7,1.5c-1.6,1.1-2.9,1.8-3.9,2.2c-0.9,0.4-1.8,0.5-2.9,0.5c-1.1,0-2.1-0.4-3-1c-1.7-1.1-2.7-2.5-2.9-4.2
				c-0.2-1.7,0.1-3.4,1.2-5c1-1.6,2.4-2.7,4-3.2l-1.1-0.7l2.7-4.1l5.2,3.4l-2.6,4.1c-1.8-0.4-3,0-3.9,1.3c-0.6,0.9-0.5,1.6,0.3,2.1
				c0.4,0.2,0.7,0.3,1.1,0.2c0.4-0.1,1.3-0.6,2.8-1.6c2.1-1.2,3.5-2,4.3-2.3c0.4-0.2,0.9-0.3,1.5-0.4c0.6-0.1,1.1-0.1,1.6-0.1
				c1.2,0.1,2.3,0.4,3.3,1.1c1.5,1,2.5,2.4,2.8,4.2c0.3,1.8,0,3.6-1.2,5.3c-1,1.6-2.5,2.8-4.3,3.5L96.4,334.9z"/>
			<path d="M94.4,309.6l-1.3,1l-3.1-4.1l8.9-6.7l3.1,4.1l-0.8,0.6l4.4,5.8c1.1,1.4,1.9,2.2,2.6,2.5c0.6,0.3,1.3,0.2,2-0.3
				c0.6-0.4,0.8-1,0.8-1.6c-0.1-0.6-0.6-1.6-1.5-2.8l-4.7-6.2l-0.9,0.7l-3.1-4.1l6.5-4.9l3.1,4.1l-1.4,1l4.8,6.3
				c1.2,1.6,2,3.1,2.3,4.5c0.3,1.4,0.1,2.7-0.5,4.1s-1.8,2.7-3.3,3.9c-1.3,1-2.5,1.7-3.7,2.1c-1.2,0.5-2.4,0.6-3.4,0.4
				c-1-0.2-2-0.6-3-1.2c-0.9-0.6-2-1.8-3.4-3.5L94.4,309.6z"/>
			<path d="M129.4,308.3l-8.4,3.1l-1.8-4.9l1.8-0.7l-3.9-10.6l-1.8,0.7l-1.8-4.9l9.7-3.5l11.3,8l-2.1-5.8l-1.7,0.6l-1.8-4.9l8.2-3
				l1.8,4.9l-1.8,0.6l5.8,15.8l-6.7,2.4l-13.1-9.2l2.6,7.2l1.8-0.7L129.4,308.3z"/>
			<path d="M154.9,300.2l-8.7,2.1l-1.3-5.1l1.8-0.5l-2.7-11l-1.9,0.5l-1.3-5.1l10-2.5l10.4,9.1l-1.5-6l-1.7,0.4l-1.3-5.1l8.5-2.1
				l1.3,5l-1.8,0.5l4,16.3l-6.9,1.7l-12-10.6l1.8,7.4l1.9-0.5L154.9,300.2z"/>
			<path d="M188.8,293.1l-11.7,2.1l-0.9-5.1l1.7-0.3l-0.6-3.4l-6.8-6.8l-1.5,0.3l-0.9-5.1l11.2-2l0.9,5.1l-1.3,0.2l3.1,4l2-4.9
				l-1.3,0.2l-0.9-5.1l8.2-1.5l0.9,5.1l-1.3,0.2l-4,8.7l0.6,3.4l1.7-0.3L188.8,293.1z"/>
			<path d="M208.3,290.2l-4.9,0.6l-0.9-6.9l4.9-0.6c0.8,1.8,2,2.6,3.6,2.4c1.2-0.1,1.7-0.7,1.6-1.6c-0.1-0.5-0.3-0.9-0.8-1.1
				c-0.5-0.3-1.5-0.7-2.9-1.1c-1.9-0.6-3.2-1.1-4.1-1.6c-0.8-0.4-1.6-1.1-2.3-1.9c-0.7-0.9-1.1-1.8-1.2-3c-0.2-2,0.2-3.7,1.4-4.9
				c1.2-1.3,2.7-2,4.6-2.3c1.9-0.2,3.6,0.1,5,1l-0.2-1.3l4.9-0.6l0.8,6.1L213,274c-0.8-1.6-1.9-2.3-3.4-2.2
				c-1.1,0.1-1.5,0.6-1.4,1.5c0.1,0.4,0.2,0.7,0.6,0.9c0.3,0.2,1.3,0.6,3,1.2c2.2,0.8,3.8,1.4,4.5,1.8c0.4,0.2,0.8,0.5,1.2,0.9
				c0.4,0.4,0.8,0.8,1.1,1.2c0.7,0.9,1.1,2,1.3,3.2c0.2,1.8-0.3,3.4-1.5,4.8c-1.2,1.4-2.8,2.3-4.9,2.5c-1.9,0.2-3.7-0.1-5.4-1.1
				L208.3,290.2z"/>
			<path d="M235.2,287.3l-12.3,1.2l-0.5-5.2l2-0.2l-1.1-11.3l-2,0.2l-0.5-5.2l12.3-1.2l0.5,5.2l-2,0.2l1.1,11.3l2-0.2L235.2,287.3z"
				/>
			<path d="M247.9,286.3l-10.1,0.7l-0.3-5.2l1.7-0.1l-0.8-11.3l-1.7,0.1l-0.3-5.2l10.4-0.7c2.4-0.2,4.3-0.1,5.8,0
				c1.5,0.2,3,0.7,4.4,1.5c1.4,0.8,2.5,2,3.4,3.5c0.4,0.7,0.8,1.5,1,2.3c0.3,0.8,0.4,1.7,0.5,2.7c0.1,1.9-0.2,3.6-0.9,5.2
				c-0.7,1.6-1.6,2.8-2.8,3.7c-1.1,0.9-2.4,1.5-3.8,1.9C253,285.9,250.8,286.2,247.9,286.3z M246.8,269.9l0.8,11.3l0.8-0.1
				c2-0.1,3.2-0.7,3.7-1.8c0.5-1.1,0.7-2.4,0.6-4c-0.1-1-0.3-1.9-0.6-2.8c-0.3-0.9-0.8-1.6-1.5-2.1c-0.7-0.5-1.8-0.6-3.5-0.5
				L246.8,269.9z"/>
			<path d="M286.1,284.5l-20.7,0.7l-0.2-5.2l1.7-0.1l-0.4-11.3l-1.7,0.1l-0.2-5.2l20.8-0.7l0.2,6.9l-5.7,0.2l-0.1-1.7l-4.9,0.2
				l0.1,3.3l4.3-0.2l0.2,4.4l-4.3,0.2l0.1,3.6l4.9-0.2l-0.1-1.7l5.7-0.2L286.1,284.5z"/>
			<path d="M302.1,284.3l-4.9,0l0-7l4.9,0c0.6,1.9,1.7,2.8,3.3,2.8c1.2,0,1.7-0.5,1.7-1.4c0-0.5-0.2-0.9-0.6-1.2
				c-0.4-0.4-1.4-0.8-2.8-1.5c-1.8-0.8-3.1-1.5-3.9-2.1c-0.8-0.5-1.5-1.3-2-2.2c-0.6-0.9-0.8-2-0.8-3.1c0-2,0.6-3.6,2-4.7
				c1.3-1.1,2.9-1.7,4.8-1.7c1.9,0,3.5,0.5,4.8,1.6l0-1.3l4.9,0l0,6.2l-4.9,0c-0.6-1.7-1.7-2.6-3.2-2.6c-1.1,0-1.6,0.5-1.6,1.4
				c0,0.4,0.2,0.8,0.5,1c0.3,0.2,1.2,0.7,2.8,1.5c2.1,1.1,3.6,1.8,4.3,2.3c0.4,0.2,0.7,0.6,1.1,1c0.4,0.4,0.7,0.9,0.9,1.3
				c0.6,1,0.9,2.1,0.9,3.3c0,1.8-0.7,3.4-2,4.6c-1.3,1.3-3.1,1.9-5.1,1.9c-1.9,0-3.7-0.6-5.2-1.7L302.1,284.3z"/>
			<path d="M318.5,267.8l-1.7,0l0.1-5.2l11.1,0.2L328,268l-1,0l-0.2,7.3c0,1.8,0.1,2.9,0.4,3.6c0.3,0.6,0.9,1,1.8,1
				c0.7,0,1.2-0.2,1.6-0.8c0.3-0.5,0.5-1.6,0.6-3.2l0.2-7.8l-1.1,0l0.1-5.2l8.2,0.2l-0.1,5.2l-1.7,0l-0.2,7.9c0,2-0.4,3.6-1,4.9
				c-0.6,1.3-1.6,2.2-3,2.9c-1.4,0.7-3,1-5,1c-1.6,0-3-0.3-4.2-0.7c-1.2-0.4-2.2-1-2.9-1.8c-0.7-0.8-1.2-1.7-1.6-2.8
				c-0.3-1.1-0.5-2.7-0.4-4.9L318.5,267.8z"/>
			<path d="M348.7,285.2l-8.9-0.4l0.3-5.2l1.9,0.1l0.5-11.3l-1.9-0.1l0.3-5.2l10.3,0.5l7.3,11.7l0.3-6.1l-1.8-0.1l0.3-5.2l8.8,0.4
				l-0.3,5.2l-1.9-0.1l-0.8,16.8l-7.1-0.3l-8.5-13.6l-0.4,7.6l1.9,0.1L348.7,285.2z"/>
			<path d="M379.9,287.1l-13.2-1l0.4-5.2l2.3,0.2l0.9-11.3l-2.4-0.2l0.4-5.2l21.3,1.6l-0.6,7.1l-5.8-0.4l0.2-1.9l-4.8-0.4l-0.3,3.3
				l3.7,0.3l-0.3,4.4l-3.7-0.3l-0.3,3.6l2.5,0.2L379.9,287.1z"/>
			<path d="M410.1,290.1l-20.6-2.2l0.5-5.2l1.9,0.2l1.2-11.3l-1.9-0.2l0.5-5.2l12.4,1.3l-0.5,5.2l-2.1-0.2l-1.2,11.3l5.1,0.5
				l0.4-3.5l5.2,0.5L410.1,290.1z"/>
			<path d="M413.5,279.5c0.3-1.8,0.9-3.5,2.1-5c1.1-1.5,2.7-2.8,4.6-3.6c0.7-0.3,1.4-0.5,2.1-0.7c0.7-0.1,1.5-0.2,2.3-0.2
				c0.8,0,1.7,0,2.6,0.2c3.9,0.6,6.7,2.1,8.5,4.7c0.9,1.3,1.5,2.6,1.9,4c0.4,1.4,0.4,2.8,0.2,4.2c-0.4,3-1.9,5.5-4.4,7.4
				c-2.5,1.9-5.6,2.6-9.3,2.1c-3.6-0.5-6.4-2-8.3-4.4C413.8,285.6,413,282.8,413.5,279.5z M422.8,280.8c-0.3,2.4-0.3,4,0,4.9
				c0.3,0.9,1,1.4,1.9,1.6c0.9,0.1,1.7-0.2,2.3-0.9c0.6-0.8,1-2.4,1.4-4.8c0.3-2.4,0.3-4,0-4.9c-0.3-0.9-1-1.4-1.9-1.6
				c-0.9-0.1-1.7,0.2-2.3,0.9C423.7,276.8,423.2,278.4,422.8,280.8z"/>
			<path d="M450.8,296.7l-6.7-1.4l-2.6-17.6l-1.5-0.3l1-5.1l11,2.3l-1,5.1l-1.6-0.3l0.6,9.7l5.1-8.5l-1.6-0.3l1-5.1l9.3,1.9l-1,5.1
				l-1.6-0.3l1.4,9.8l4.4-8.6l-1.5-0.3l1-5.1l8.6,1.8l-1,5.1l-1.5-0.3l-9.4,15.1l-6.6-1.4l-1.2-8.8L450.8,296.7z"/>
			<path d="M491.8,307.1l-19.8-6l1.5-5l1.6,0.5l3.3-10.8l-1.6-0.5l1.5-5l19.9,6l-2,6.7l-5.5-1.6l0.5-1.7l-4.7-1.4l-1,3.2l4.1,1.2
				l-1.3,4.2l-4.1-1.2l-1,3.4l4.7,1.4l0.5-1.7l5.5,1.6L491.8,307.1z"/>
			<path d="M504.8,312.7l-10.6-5.1l2.3-4.7l1.6,0.8l4.9-10.2l-1.6-0.8l2.3-4.7l10.6,5.1c1,0.5,1.8,0.9,2.6,1.3s1.5,0.8,2,1.2
				c0.6,0.3,1,0.7,1.5,1c1.2,1,2,2.1,2.4,3.5c0.4,1.4,0.3,2.8-0.4,4.1c-0.5,1-1.2,1.8-2.1,2.4c-0.9,0.6-1.9,0.8-2.9,0.8l0.5,5.8
				l1.4,0.7l-2.3,4.7l-7.1-3.4l-0.4-10.1l-2.4-1.2l-1.6,3.3l1.5,0.7L504.8,312.7z M510.7,296.7l-1.8,3.7l0.8,0.4
				c1.1,0.5,1.9,0.9,2.3,1c0.5,0.1,0.9,0.1,1.3,0c0.4-0.2,0.8-0.5,1-1c0.2-0.5,0.3-1,0.1-1.4c-0.1-0.4-0.4-0.8-0.8-1.1
				c-0.4-0.3-1.2-0.7-2.3-1.2L510.7,296.7z"/>
		</g>
	</g>
	<g id="Logo_1">
		<g>
			<g>
				<path d="M162.1,125.7c-1.9,0-2.8,0-4.5-0.1c-11.5-2.1-16.8-12.1-22.1-21c2.2-0.3,3.4-0.5,5.7-0.8c4.6,9,9,11.9,10.9,11.6
					c1.4-0.2,0.7-1.9-1.5-6c-1.1-2.1-2.3-4-3.4-5.4c-1.3-1.6-3.4-3.8-6.2-6.7c-3.6-3.7-6.1-7.3-7.7-10.3c-1.5-2.8-2.9-6.6-3.8-11.6
					c-0.9-4.9-1-10.4,0.1-15.9c1.9-10,6.5-16,10.9-19.7c4.5-3.7,8-5.1,9.8-5.6c1.8-0.5,1.4-0.1,0.3,3c1.3-1.7,2-2.4,3.6-3.7
					c2-0.5,3.1-0.7,5.2-1.1c-6.5,6-8.2,11.7-9.4,24c-2.6,0.4-3.9,0.6-6.4,0.9c0.3-8.4,0.7-11.5-1-11.1c-1.2,0.2-2.7,2.1-3.8,6.3
					c-0.5,2-0.6,3.6-0.4,4.6c0.2,1.1,0.9,3.4,2.8,7.1c2.6,5.1,4.9,9.1,6.2,11.6c0.6,1.2,1.4,3,2.3,5.2c0.9,2.2,1.8,4.6,2.7,7
					c2,5.3,4.1,11,6.5,16.5c3.6,8.5,6.8,14.1,9,17.4c2.3,3.4,2.9,3.9,0.8,4c-2,0.1-5.9,0-11.5-2.1
					C158.8,124.7,159.9,125.2,162.1,125.7z"/>
				<path d="M157,50.5c-0.9,0.1-1.4,0.2-2.3,0.3c1.5-9.8,3-14.1,8.1-19.3c5.1-0.9,7.8-1.2,13.5-1.7c-3.7,5.4-4.7,9.7-5.5,19.2
					c-0.6,0.1-0.9,0.1-1.5,0.2c-1,12.4,0.3,25,2.9,37.2c2,9,4.4,14.5,6,17.1c1.6,2.6,3.1,3.7,4.3,3.4c1.1-0.2,1.3-1.5,0.9-3.9
					c-0.4-2.4-1.9-7.2-3.8-15.3c-3-12.8-4.5-26-3.8-39.1c-0.7,0.1-1,0.1-1.7,0.2c0.7-9.4,1.6-13.7,5.1-19.1
					c4.2-0.3,6.4-0.5,10.9-0.7c-2.5,5.4-3.1,9.6-3.3,18.7c-1.1,0.1-1.6,0.1-2.7,0.2c-0.3,12.9,1.3,25.8,4.1,38.3
					c2.2,9.8,4.3,17.1,5.7,22.1c1.4,4.9,2,8.1,1.8,10.2c-0.2,2.2-1.4,3.2-3.8,3.7c-2,0.4-4.2,0.5-6.7,0.1c-2.5-0.4-5.4-1.3-8.3-3.2
					c-2.9-1.9-6-4.9-8.8-9.2c-2.8-4.2-6.4-11.6-8.9-23.2C156.4,74.9,155.4,62.5,157,50.5z"/>
				<path d="M218.7,113.5c-4.8,1.6-7.2,2.4-11.9,3.8c-3.9-4.3-5.7-8.1-8.6-16.7c1.2-0.3,1.8-0.5,3-0.8c-4.9-17.5-7.6-34.5-8.4-52.7
					c-1.2,0.1-1.8,0.1-3,0.2c0.1-9,0.6-13.2,2.8-18.6c5.7-0.2,8.6-0.2,14.4-0.2c3.3,14.9,9.8,28.8,16,42.7
					c-1.7-10.7-2.6-16.2-3.7-25.6c-1.2,0-1.7,0.1-2.9,0.1c-0.8-8.1-1-11.8-0.6-17c5,0.2,7.6,0.3,12.6,0.6c0.6,4.9,1.2,8.4,2.5,15.9
					c-1.2,0-1.9,0.1-3.1,0.1c3.3,20.4,5.5,41.5,10.6,61.6c-3.8,1.5-5.7,2.3-9.5,3.7C215.9,98,209.1,79.2,202.3,63
					c1.4,11.7,3.6,23.4,6.8,34.8c1.2-0.3,1.8-0.5,3-0.8C214.5,105.2,215.8,108.9,218.7,113.5z"/>
				<path d="M255.2,99.1c-4.6,2.1-7,3.1-11.7,5.1c-0.8-4.8-1.2-8.3-2.3-15.7c1.2-0.4,1.8-0.6,3-0.9c-1.8-14.3-4.1-28.3-6.8-42.4
					c-1.2,0-1.9,0-3.1,0.1c-1.4-7.3-2.1-10.7-2.9-15.6c5.9,0.4,8.8,0.7,14.6,1.3c8.4,10.1,16.1,20.9,22.4,32.4
					c-1.1-7.7-2.2-11.6-4.9-18.4c-1.1,0-1.6,0-2.7,0c-2.2-5.9-3.6-8.7-6.2-12.9c4.8,0.6,7.1,1,11.6,1.8c3.6,3.8,5.3,6.2,7.9,11.3
					c-1.1,0-1.7,0-2.8-0.1c7.3,14,7.1,31.5,1.5,46c-3.3,1.8-5,2.6-8.5,4.4c-2.8-13.5-9.4-25.7-15.6-37.8c2.2,10.9,2.8,17.1,3.6,27.4
					c1.2-0.4,1.8-0.6,3-0.9C255.5,91,255.5,94.2,255.2,99.1z"/>
				<path d="M296.4,76.6c-5,3.4-8.4,5.5-13.5,8.4c3-4.6,4.2-7.2,5.6-12.4c0.9-0.3,1.4-0.5,2.3-0.9c1-3.4,1.3-5.1,1.4-8.4
					c-2.8-6.8-6.1-10.6-13.5-18c-0.9,0-1.3,0-2.2-0.1c-2.7-5-4.5-7.3-8.3-11c5.8,1,8.5,1.6,14.6,3c5,3,7.2,4.8,10.5,8.7
					c-0.8,0-1.2-0.1-2-0.1c4.2,3.5,6,5.2,8.5,8.5c0.6-3.7,0.4-5.3-0.9-8.1c-0.8-0.1-1.2-0.1-1.9-0.1c-3.4-3.5-5.7-5.2-10.9-8.1
					c4.3,1.1,6.3,1.7,10,3c6.1,2.2,8.7,3.5,12.5,6c-0.7-0.1-1.1-0.1-1.8-0.2c2.7,3.9,2.2,6.4-1.8,13.3c-0.4,2.7-0.8,4.1-2.3,6.9
					c0.9-0.4,1.4-0.6,2.3-0.9C302.7,70.2,300.9,72.4,296.4,76.6z"/>
			</g>
		</g>
		<g>
			<g>
				<path d="M318.3,107.9c-3.1-1.9-4.6-2.9-7.3-4.7c-7-5.2-9.7-7.8-12.3-12.3c3.5,1.1,5.4,1.7,9.4,2.8c2.6,4.2,6.2,7.1,9.4,8.4
					c2.4,0.9,3.1,0.3,2.3-1.9c-0.4-1.2-1.1-2.3-2.2-3.3c-1.2-1.1-3.5-2.8-6.8-4.8c-4.1-2.6-6.9-4.3-8.6-5.5
					c-1.5-1.1-2.8-2.4-3.2-3.8c-0.5-1.4,0.1-2.7,1.8-4.2c3.1-2.7,8.1-4.9,13.3-7.1c5.1-2.2,9.4-3.9,12.9-5c3.5-1.1,5.4-1.1,5.8,0.4
					c1-1,1.6-1.5,2.7-2.4c3.4-0.8,5.1-1.2,8.7-2c-4.1,4.7-6,7.7-8.7,14.2c-4.2,0.1-6.2,0.2-10.2,0.4c0.8-3.8,0.2-5.2-3-4.7
					c-2.3,0.3-4.3,1.3-5.7,3c-0.7,0.8-0.8,1.4-0.5,1.8c0.3,0.4,1.7,1.2,4.6,2.9c3.9,2.3,6,4.6,7.3,6c0.7,0.7,1.3,1.7,2,2.9
					c0.7,1.3,1.3,2.6,1.8,4c1.1,3.1,1.8,6.5,2.2,9.8c0.6,5.2,0.3,8.9-0.7,10.8c-1.1,2-2.2,2.1-5.9,0.1c-3.4-1.9-7.4-4.8-12.2-8.6
					C316.5,106.2,317.1,106.8,318.3,107.9z"/>
				<path d="M365.7,130.5c-9.5-3.6-14.1-5.6-22.8-9.6c-1.8-4.7-2.6-7.6-3.3-13.7c1.7,0.5,2.5,0.8,4.2,1.3c-1-11.9,0.4-23.8,4.3-35
					c-1.8,0.1-2.7,0.1-4.4,0.2c2.2-5.7,3.6-8.3,6.6-12.5c9.4-1.8,14.4-2.5,24.4-3.8c-1,4.8-1.7,8.1-2.9,15.3c-1.8,0-2.8,0.1-4.6,0.1
					c-2.8,13.5-4.4,27.2-5,40.9c1.8,0.5,2.7,0.7,4.5,1.2C366.2,122.3,366,125.7,365.7,130.5z"/>
				<path d="M390.8,139.2c-7.9-2.4-11.9-3.8-19.7-6.7c0.7-4.8,1.1-8.3,1.9-15.8c1.5,0.4,2.3,0.6,3.9,1c1.8-15,3.6-30.1,5.5-45.1
					c-1.6,0-2.4,0-4,0c1.1-7.5,1.6-10.9,2.1-15.9c8.5-0.9,12.8-1.3,21.3-1.7c4.8-0.3,8.8,0,12.1,0.7c3.3,0.8,6.9,2.4,10.4,5.6
					c3.6,3.2,6.8,8.2,8.9,15.6c1,3.5,1.7,7.5,2,11.9c0.3,4.4,0.2,9-0.4,13.9c-1.2,9.7-4.2,18.4-8.2,24.9c-4,6.4-8.2,10-12.1,11.9
					c-3.8,1.9-7.4,2.5-10.5,2.4C400.9,141.9,396.5,141,390.8,139.2z M402.2,72.7c-0.5,16.7-2.7,33.5-6.1,49.8
					c0.7,0.2,1.1,0.3,1.8,0.4c4.5,1.1,8-0.3,10.4-4.7c2.4-4.4,4.2-10.7,5.2-18.4c0.6-4.6,0.7-9.2,0.4-13.7c-0.3-4.4-1.4-7.8-2.9-10
					c-1.5-2.3-4.2-3.4-8.1-3.4C402.6,72.7,402.5,72.7,402.2,72.7z"/>
				<path d="M456.4,150.1c-10.9,1-21.5-0.8-32.2-2.4c5.3-3.9,7.6-7.7,11.1-16.7c1.4,0.3,2.1,0.4,3.5,0.6c7.2-17.5,9.4-38.5,6.9-57.2
					c-1.4-0.1-2.2-0.1-3.6-0.2c-1.2-9.5-2.4-13.8-6.5-19.1c10.8,1,21.6,1.9,31.8,5.5c10.3,5.3,12.7,16.2,15.4,26.2
					c-3.7-0.5-5.6-0.8-9.7-1.3c-0.4-3.6-0.8-5.3-1.6-8.6c-3.4-0.5-5.2-0.7-9-1.1c1.4,6.3,1.7,9.8,1.7,17c3.4,0.4,5.1,0.6,8.3,1
					c0.1,9.5-0.4,14.7-2.7,24.2c-3.2-0.4-4.9-0.6-8.3-1.1c-1.8,7.6-3,11.3-6,17.4c3.7,0.5,5.5,0.8,9,1.2c1.6-3,2.4-4.6,3.7-8
					c4.1,0.5,6.1,0.7,9.8,1.1C472.8,137.7,467.8,147.8,456.4,150.1z"/>
			</g>
		</g>
		<g>
			<g>
				<path d="M238.1,206.2c-2-0.3-2.9-0.5-4.7-0.8c-11.1-3.7-14.8-14.5-18.7-24.2c2.4,0.1,3.6,0.1,6.1,0.1c3.2,9.6,7.1,13.2,9.1,13.2
					c1.5,0,1.2-1.8-0.4-6.2c-0.8-2.3-1.6-4.3-2.6-5.9c-1-1.8-2.9-4.3-5.3-7.6c-3.1-4.3-5-8.2-6.2-11.4c-1.1-3-1.9-7-2.1-12.1
					c-0.1-5,0.6-10.4,2.6-15.8c3.5-9.6,9-14.8,14.1-17.8c5.1-3,8.9-3.8,10.8-4c1.9-0.3,1.6,0.1,0.2,3c1.5-1.5,2.3-2.1,4.1-3.1
					c2.2-0.2,3.3-0.2,5.7-0.3c-7.3,4.9-9.8,10.3-12.9,22.3c-2.8-0.1-4.2-0.1-6.9-0.1c1.5-8.3,2.4-11.3,0.5-11.2
					c-1.3,0-3.1,1.7-4.8,5.6c-0.8,1.9-1.2,3.5-1.1,4.5c0,1.1,0.5,3.5,1.9,7.5c1.9,5.5,3.7,9.8,4.6,12.5c0.5,1.3,0.9,3.2,1.5,5.5
					c0.6,2.4,1.1,4.8,1.6,7.4c1.2,5.6,2.4,11.6,3.8,17.4c2.2,8.9,4.4,15,5.9,18.6c1.6,3.7,2,4.3-0.2,4c-2.1-0.2-6-0.9-11.3-3.9
					C235,204.8,236,205.3,238.1,206.2z"/>
				<path d="M283.2,205.1c-9.2,1.3-18.7,2.1-28,2.1c-5.8-4.1-7.9-8.2-10.9-17.7c1,0,1.5-0.1,2.5-0.1c-5.5-18.3-5.1-39.9,0.1-58.2
					c-1,0-1.5-0.1-2.6-0.1c2.9-9.4,5.1-13.5,10.7-17.9c9.3,0,18.8,0.8,28,2.1c-4.2,6.7-5.5,12.8-6.9,25.8c-3.9-0.3-5.9-0.4-9.7-0.6
					c0.4-3.3,0.7-5,1.4-8c-3.2-0.2-4.8-0.4-8-0.6c-1.4,6-1.9,9.3-2.5,16.2c2.9,0.1,4.3,0.1,7.2,0.2c-0.7,8.9-0.7,13.7-0.2,22.7
					c-2.9,0.1-4.4,0.1-7.3,0.2c0.5,7.4,1,11.1,2.6,17.5c3.1-0.2,4.7-0.3,8-0.6c-0.6-3.1-0.9-4.7-1.3-8.1c3.8-0.2,5.8-0.3,9.7-0.6
					C277.6,192.4,278.9,198.7,283.2,205.1z"/>
				<path d="M318.5,198.7c-10.1,2.4-20.4,4.3-30.6,5.8c-2.8-4.9-3.8-8.9-5.1-17.7c1.1-0.1,1.7-0.2,2.9-0.3
					c-2.1-17.2-2.3-35.2,0.1-52.5c-1.2-0.1-1.7-0.2-2.9-0.3c1.3-8.8,2.3-12.8,5-17.8c10.3,1.4,20.6,3.4,30.7,5.8
					c-0.3,6.7-0.1,11.9,0,22.7c-4-0.4-6-0.6-10.1-0.9c0.1-2.9,0.1-4.3,0.2-7c-3.4-0.4-5.1-0.6-8.5-1c-0.4,5.3-0.5,8.3-0.7,14.2
					c3.1,0.2,4.6,0.2,7.7,0.4c-0.1,7.6-0.1,11.5-0.1,19.2c-3.1,0.1-4.7,0.2-7.7,0.4c0.1,6.4,0.2,9.6,0.7,15.3c3.4-0.4,5.1-0.6,8.5-1
					c-0.1-2.7-0.1-4.1-0.2-7c4-0.4,6.1-0.5,10.1-0.9C318.3,186.9,318.2,192.2,318.5,198.7z"/>
				<path d="M338.2,193.6c-5.7,1.6-8.7,2.4-14.6,3.9c0.2-4.8,0.4-8.2,0.6-15.6c1.2-0.2,1.7-0.2,2.9-0.4c0.8-14.1,0.9-28.3,0.1-42.4
					c-1.2-0.2-1.7-0.2-2.9-0.4c-0.3-7.4-0.5-10.8-0.7-15.7c6.1,1.5,9.1,2.3,15,4c3.4,1,6.2,2.1,8.5,3.4c2.4,1.3,5.1,3.2,8,6
					c2.9,2.7,5.9,6.2,8.3,10.6c1.2,2.1,2.2,4.3,2.9,6.6c0.7,2.3,1.1,4.7,1,7.2c-0.1,5-1.8,9.8-4.3,14.1c-2.5,4.3-5.4,7.6-8.1,10
					c-2.6,2.4-5,4.2-7.3,5.3C345.5,191.2,342.4,192.4,338.2,193.6z M341.3,141.2c1.9,12.6,1.8,25.5-0.1,38.1
					c0.5-0.1,0.8-0.1,1.3-0.2c3.3-0.5,5.7-2.5,7.2-5.9c1.5-3.4,2.5-7.7,2.5-12.7c0-3-0.4-6-1.1-9c-0.7-3-1.9-5.3-3.2-7
					c-1.3-1.7-3.4-2.8-6.1-3.3C341.7,141.2,341.5,141.2,341.3,141.2z"/>
				<path d="M368.2,183.5c-2.7,1.1-3.9,1.5-6.3,2.4c4.8-5.5,6.8-9,8.9-15.9c3-0.4,4.5-0.6,7.7-1.1c-0.6,4.1-0.5,5.6,1.9,4.9
					c1.8-0.5,3.4-1.6,4.6-3.4c0.6-0.9,0.8-1.7,0.5-2.2c-0.3-0.6-1.3-1.3-3.3-2.4c-2.4-1.4-4.6-3-5.8-4.3c-1.1-1.2-2.2-3-3.3-5.4
					c-1.2-2.3-2.2-5-3.2-7.8c-1.8-5-3.1-8.4-3.3-10.2c-0.2-1.8,0.8-1.9,3.3-0.8c2.5,1.1,5.8,3,9.9,5.6c-1.2-0.9-1.8-1.4-3.1-2.3
					c2.4,1.1,3.6,1.7,5.7,2.8c6.7,3.9,9.4,5.9,12.6,9.7c-2.7-0.6-4.1-0.9-7-1.4c-2.9-3.3-6.1-5.4-8.3-6c-1.6-0.5-1.6,0.2-0.5,2.1
					c0.6,0.9,1.2,1.6,1.9,2.2c0.7,0.6,2.8,1.9,5.9,3.8c4.2,2.5,6.7,3.9,7.9,4.7c0.6,0.4,1.2,1,1.8,1.6c0.6,0.7,0.9,1.3,1.1,2
					c0.4,1.5-0.1,3-1.6,4.8c-2.4,2.7-6.6,5.4-11.1,8.1c-4.6,2.8-8.3,4.9-10.9,6c-2.4,1.1-3.3,1.2-3.5-0.3
					C369.9,181.9,369.3,182.5,368.2,183.5z"/>
			</g>
		</g>
	</g>
</g>
</svg>
