<svg xmlns="http://www.w3.org/2000/svg" viewBox="0 0 70 62.5"><defs><style>.a{fill:#231f20;}</style></defs><path class="a" d="M21.25,30.75a5.75,5.75,0,0,1,0-11.5h57.5a5.75,5.75,0,0,1,0,11.5Z" transform="translate(-15 -18.75)"/><path class="a" d="M78.75,19.75a5.25,5.25,0,0,1,0,10.5H21.25a5.25,5.25,0,0,1,0-10.5h57.5m0-1H21.25A6.25,6.25,0,0,0,15,25h0a6.25,6.25,0,0,0,6.25,6.25h57.5A6.25,6.25,0,0,0,85,25h0a6.25,6.25,0,0,0-6.25-6.25Z" transform="translate(-15 -18.75)"/><path class="a" d="M21.25,55.75a5.75,5.75,0,0,1,0-11.5h57.5a5.75,5.75,0,0,1,0,11.5Z" transform="translate(-15 -18.75)"/><path class="a" d="M78.75,44.75a5.25,5.25,0,0,1,0,10.5H21.25a5.25,5.25,0,0,1,0-10.5h57.5m0-1H21.25A6.25,6.25,0,0,0,15,50h0a6.25,6.25,0,0,0,6.25,6.25h57.5A6.25,6.25,0,0,0,85,50h0a6.25,6.25,0,0,0-6.25-6.25Z" transform="translate(-15 -18.75)"/><path class="a" d="M21.25,80.75a5.75,5.75,0,0,1,0-11.5h57.5a5.75,5.75,0,0,1,0,11.5Z" transform="translate(-15 -18.75)"/><path class="a" d="M78.75,69.75a5.25,5.25,0,0,1,0,10.5H21.25a5.25,5.25,0,0,1,0-10.5h57.5m0-1H21.25A6.25,6.25,0,0,0,15,75h0a6.25,6.25,0,0,0,6.25,6.25h57.5A6.25,6.25,0,0,0,85,75h0a6.25,6.25,0,0,0-6.25-6.25Z" transform="translate(-15 -18.75)"/></svg>