<?xml version="1.0" encoding="utf-8"?>
<!-- Generator: Adobe Illustrator 24.1.1, SVG Export Plug-In . SVG Version: 6.00 Build 0)  -->
<svg version="1.1" id="_x33_-Bars" xmlns="http://www.w3.org/2000/svg" xmlns:xlink="http://www.w3.org/1999/xlink" x="0px" y="0px"
	 viewBox="0 0 1000 1000" style="enable-background:new 0 0 1000 1000;" xml:space="preserve">
<style type="text/css">
	.st0{fill:#2C3B84;}
	.st1{fill:#666B7F;}
</style>
<path class="st0" d="M900,1000H100C44.77,1000,0,955.23,0,900V100C0,44.77,44.77,0,100,0h800c55.23,0,100,44.77,100,100v800
	C1000,955.23,955.23,1000,900,1000z"/>
<g>
	<path class="st1" d="M735.71,564.29H264.29c-35.5,0-64.29-28.78-64.29-64.29v0c0-35.5,28.78-64.29,64.29-64.29h471.43
		c35.5,0,64.29,28.78,64.29,64.29v0C800,535.5,771.22,564.29,735.71,564.29z"/>
	<path class="st1" d="M735.71,800H264.29c-35.5,0-64.29-28.78-64.29-64.29v0c0-35.5,28.78-64.29,64.29-64.29h471.43
		c35.5,0,64.29,28.78,64.29,64.29v0C800,771.22,771.22,800,735.71,800z"/>
	<path class="st1" d="M735.71,328.57H264.29c-35.5,0-64.29-28.78-64.29-64.29v0c0-35.5,28.78-64.29,64.29-64.29h471.43
		c35.5,0,64.29,28.78,64.29,64.29v0C800,299.79,771.22,328.57,735.71,328.57z"/>
</g>
</svg>
